HIERARCHY
ROOT Hips
{
 OFFSET 0.000000 0.000000 0.000000
 CHANNELS 6 Xposition Yposition Zposition Yrotation Xrotation Zrotation
 JOINT Chest
 {
  OFFSET 0.000000 9.303000 0.001900
  CHANNELS 3 Yrotation Xrotation Zrotation
  JOINT Chest2
  {
   OFFSET 0.000000 9.301100 -0.003900
   CHANNELS 3 Yrotation Xrotation Zrotation
   JOINT Chest3
   {
    OFFSET 0.000000 9.262800 0.000000
    CHANNELS 3 Yrotation Xrotation Zrotation
    JOINT Chest4
    {
     OFFSET 0.000000 9.253300 0.000000
     CHANNELS 3 Yrotation Xrotation Zrotation
     JOINT Neck
     {
      OFFSET 0.000000 14.010300 0.000000
      CHANNELS 3 Yrotation Xrotation Zrotation
      JOINT Head
      {
       OFFSET 0.000000 8.657600 -0.008300
       CHANNELS 3 Yrotation Xrotation Zrotation
       End Site
       {
        OFFSET 0.000000 16.540200 -0.004400
       }
      }
     }
     JOINT RightCollar
     {
      OFFSET -2.834100 9.267700 0.000000
      CHANNELS 3 Yrotation Xrotation Zrotation
      JOINT RightShoulder
      {
       OFFSET -13.135200 0.000000 0.000000
       CHANNELS 3 Yrotation Xrotation Zrotation
       JOINT RightElbow
       {
        OFFSET 0.000000 -28.893500 0.000000
        CHANNELS 3 Yrotation Xrotation Zrotation
        JOINT RightWrist
        {
         OFFSET 0.000000 -23.344000 0.000000
         CHANNELS 3 Yrotation Xrotation Zrotation
         End Site
         {
          OFFSET 0.000000 -17.223000 0.000000
         }
        }
       }
      }
     }
     JOINT LeftCollar
     {
      OFFSET 2.834100 9.267700 0.000000
      CHANNELS 3 Yrotation Xrotation Zrotation
      JOINT LeftShoulder
      {
       OFFSET 13.135200 0.000000 0.000000
       CHANNELS 3 Yrotation Xrotation Zrotation
       JOINT LeftElbow
       {
        OFFSET 0.000000 -28.893500 0.000000
        CHANNELS 3 Yrotation Xrotation Zrotation
        JOINT LeftWrist
        {
         OFFSET 0.000000 -23.344000 0.000000
         CHANNELS 3 Yrotation Xrotation Zrotation
         End Site
         {
          OFFSET 0.000000 -17.223000 0.000000
         }
        }
       }
      }
     }
    }
   }
  }
 }
 JOINT RightHip
 {
  OFFSET -7.547200 -0.009500 -0.001000
  CHANNELS 3 Yrotation Xrotation Zrotation
  JOINT RightKnee
  {
   OFFSET 0.000000 -39.762800 0.000900
   CHANNELS 3 Yrotation Xrotation Zrotation
   JOINT RightAnkle
   {
    OFFSET 0.000000 -38.588200 0.001600
    CHANNELS 3 Yrotation Xrotation Zrotation
    JOINT RightToe
    {
     OFFSET 0.000000 -4.693300 10.419700
     CHANNELS 3 Yrotation Xrotation Zrotation
     End Site
     {
      OFFSET 0.000000 -1.379900 5.669300
     }
    }
   }
  }
 }
 JOINT LeftHip
 {
  OFFSET 7.547200 -0.009500 -0.001000
  CHANNELS 3 Yrotation Xrotation Zrotation
  JOINT LeftKnee
  {
   OFFSET 0.000000 -39.762800 0.000900
   CHANNELS 3 Yrotation Xrotation Zrotation
   JOINT LeftAnkle
   {
    OFFSET 0.000000 -38.588200 0.001600
    CHANNELS 3 Yrotation Xrotation Zrotation
    JOINT LeftToe
    {
     OFFSET 0.000000 -4.693300 10.419700
     CHANNELS 3 Yrotation Xrotation Zrotation
     End Site
     {
      OFFSET 0.000000 -1.379900 5.669300
     }
    }
   }
  }
 }
}
MOTION
Frames: 11
Frame Time: 0.008333
0.000000 82.880600 0.000000 0.000000 -5.767877 0.000000 0.000000 11.653817 0.000000 0.000000 -5.885947 0.000000 0.000000 -0.000000 0.000000 0.000000 -0.000000 0.000000 0.000000 12.528835 0.000000 0.000000 0.711642 0.000000 0.000000 -0.000000 0.000000 0.000000 0.000000 -90.000000 0.000000 -2.309062 0.000000 0.000000 2.309062 0.000000 0.000000 -0.000000 0.000000 0.000000 -0.000000 90.000000 0.000000 -2.309062 0.000000 0.000000 2.309062 0.000000 0.000000 8.520406 0.000000 0.000000 1.905762 0.000000 -0.000000 -4.658285 0.000000 0.000000 -0.000000 0.000000 0.000000 8.520406 0.000000 0.000000 1.905762 0.000000 -0.000000 -4.658285 0.000000 0.000000 -0.000000 0.000000
1.671961 45.861388 9.798826 164.125593 -10.560348 0.454861 3.645267 8.408369 0.273191 0.171698 0.477021 0.024790 0.347893 0.807522 0.036707 3.471470 7.849199 0.568879 -2.561528 22.300378 0.071566 -2.803387 -1.810791 0.666912 2.879138 3.414342 -4.340600 -1.620634 -10.607897 -1.290098 -120.533950 -85.594821 135.173925 -9.166957 -6.359845 -32.071006 -11.002787 0.984391 -4.288278 13.080239 -11.596266 9.559284 59.838840 -69.834625 -81.082972 7.509591 -2.937173 20.079088 -12.430185 -77.480380 9.517351 -145.484109 82.398540 -147.699523 -9.460805 -10.749096 0.469551 0.048227 -0.295227 0.029780 1.123471 -76.349214 22.335548 100.632387 78.395265 98.023116 -12.302097 -9.831138 2.187526 0.102875 0.418840 0.050457
1.673647 45.862653 9.797495 164.081186 -10.551189 0.459201 3.661150 8.411321 0.277084 0.171836 0.477311 0.023736 0.347581 0.808658 0.036382 3.467002 7.860177 0.567022 -2.568253 22.308048 0.063364 -2.831920 -1.794349 0.670530 2.916979 3.372628 -4.374228 -1.604680 -10.570683 -1.278773 -120.541151 -85.589160 135.159803 -9.167061 -6.318986 -32.080452 -10.984819 0.952265 -4.285786 13.092402 -11.579544 9.561536 59.781907 -69.792637 -81.022523 7.636806 -3.066925 20.188033 -12.404390 -77.487811 9.527221 -145.559742 82.404827 -147.784875 -9.342653 -10.752790 0.451726 0.071537 -0.292571 0.037291 1.149379 -76.355742 22.358663 100.705855 78.425892 98.087844 -12.260089 -9.840315 2.193487 0.067873 0.410911 0.042365
1.674612 45.864445 9.793709 164.055908 -10.552333 0.469579 3.654651 8.425148 0.269551 0.176559 0.475226 0.024844 0.347384 0.809582 0.035989 3.457840 7.869455 0.563473 -2.627455 22.338448 0.065219 -2.812282 -1.812729 0.660330 2.947624 3.306181 -4.446794 -1.592341 -10.508938 -1.227413 -120.151746 -85.621787 134.769046 -9.172554 -6.352212 -32.086900 -10.970820 0.914045 -4.274433 13.105238 -11.520597 9.569972 59.742430 -69.661631 -81.011896 7.695384 -3.268067 20.277112 -12.344523 -77.487392 9.485636 -145.620696 82.406766 -147.853624 -9.254173 -10.755322 0.438977 0.089451 -0.293289 0.044627 1.174438 -76.348583 22.369526 100.829225 78.472564 98.188933 -12.222603 -9.858231 2.208899 0.054081 0.409886 0.036507
1.677962 45.866379 9.789788 164.041255 -10.555729 0.465147 3.634043 8.441121 0.278330 0.200081 0.466632 0.019987 0.334195 0.810937 0.037254 3.454443 7.880802 0.560556 -2.654654 22.338863 0.074835 -2.847239 -1.802598 0.677855 2.972874 3.259691 -4.489280 -1.588426 -10.473590 -1.196334 -119.569475 -85.721508 134.217773 -9.178131 -6.408575 -32.088925 -10.959673 0.873288 -4.258977 13.131156 -11.425613 9.591127 59.832082 -69.522170 -81.172948 7.742876 -3.469180 20.354664 -12.319271 -77.478443 9.482921 -145.578495 82.405841 -147.805130 -9.256280 -10.761432 0.441583 0.084418 -0.289498 0.044033 1.067552 -76.330773 22.515600 100.907297 78.508956 98.234187 -12.239143 -9.872871 2.184322 0.076314 0.414872 0.065748
1.679996 45.868328 9.785001 163.992844 -10.559700 0.476947 3.668169 8.448632 0.274859 0.200254 0.466865 0.019909 0.326856 0.807815 0.038501 3.425885 7.888628 0.560289 -2.674151 22.339787 0.089658 -2.896964 -1.790402 0.707571 3.016821 3.217121 -4.537044 -1.565115 -10.425532 -1.190476 -119.567966 -85.774873 134.218180 -9.169383 -6.430152 -32.075846 -10.921899 0.840929 -4.237839 13.152679 -11.383321 9.576297 59.799022 -69.415748 -81.218530 7.821334 -3.653926 20.415799 -12.232445 -77.473584 9.449413 -145.538576 82.405231 -147.760347 -9.269571 -10.765858 0.443327 0.081283 -0.285276 0.042018 1.105376 -76.321128 22.532791 100.977020 78.522302 98.295711 -12.229690 -9.878818 2.180454 0.072600 0.405939 0.065198
1.682023 45.870216 9.779194 163.963681 -10.568236 0.487490 3.667661 8.453572 0.269752 0.170419 0.458123 0.020923 0.355703 0.812688 0.035000 3.431061 7.887488 0.560070 -2.726704 22.348339 0.118879 -2.960678 -1.777938 0.751094 3.032426 3.185722 -4.580456 -1.535407 -10.377650 -1.188693 -119.765682 -85.868539 134.424740 -9.182064 -6.494483 -32.067404 -10.891026 0.788039 -4.169382 13.169684 -11.295193 9.525921 59.773683 -69.331673 -81.282885 7.909589 -3.840042 20.467153 -12.151830 -77.463897 9.408507 -145.471462 82.401308 -147.686180 -9.327096 -10.772092 0.452575 0.066760 -0.280755 0.038028 1.135351 -76.306640 22.537984 101.032303 78.532235 98.344522 -12.227483 -9.886816 2.172991 0.067888 0.399791 0.062708
1.683861 45.871520 9.774495 163.948608 -10.568379 0.494961 3.651634 8.446914 0.262446 0.169483 0.453178 0.019191 0.349140 0.810326 0.035413 3.444665 7.885695 0.559181 -2.788668 22.354429 0.159676 -3.037220 -1.767727 0.809192 3.046312 3.155276 -4.620966 -1.482895 -10.337601 -1.236260 -119.882904 -85.936778 134.522518 -9.174850 -6.563747 -32.053187 -10.855791 0.766348 -4.132273 13.185884 -11.238879 9.514987 59.773312 -69.262815 -81.383149 7.992900 -4.029533 20.512038 -12.090935 -77.462789 9.377323 -145.422571 82.399697 -147.630250 -9.401025 -10.775541 0.466834 0.047428 -0.277845 0.031336 1.129364 -76.293382 22.575227 101.050170 78.551339 98.347071 -12.254674 -9.899262 2.154378 0.088446 0.404886 0.072449
1.686621 45.872837 9.767225 163.911973 -10.584044 0.505584 3.654740 8.449442 0.253501 0.170878 0.451959 0.020602 0.356962 0.814211 0.035502 3.449126 7.881619 0.558136 -2.866660 22.349650 0.210876 -3.125514 -1.761583 0.880576 3.052373 3.116564 -4.658444 -1.466197 -10.285646 -1.214580 -121.025775 -86.089384 135.678574 -9.157377 -6.642900 -32.040336 -10.821516 0.739795 -4.090268 13.203361 -11.189639 9.503936 59.757904 -69.210814 -81.470436 8.060193 -4.222603 20.558855 -11.991670 -77.448103 9.324555 -145.460128 82.400314 -147.670672 -9.404608 -10.777088 0.477113 0.008693 -0.277201 0.028254 1.130007 -76.265058 22.619071 101.145804 78.569298 98.427195 -12.248274 -9.928159 2.137635 0.086805 0.411764 0.077470
1.692225 45.873965 9.758465 163.842852 -10.612153 0.508450 3.693046 8.464210 0.262287 0.172113 0.448230 0.018452 0.378905 0.827559 0.036315 3.429249 7.859678 0.554032 -2.946446 22.345643 0.271079 -3.226012 -1.762169 0.963759 3.064216 3.081855 -4.693189 -1.416649 -10.258186 -1.290515 -121.714302 -86.210360 136.338461 -9.126986 -6.720883 -32.024870 -10.777231 0.718997 -4.049030 13.216171 -11.178180 9.527580 59.704354 -69.130990 -81.517094 8.115763 -4.411282 20.609507 -11.914122 -77.419684 9.315761 -145.494825 82.399230 -147.707227 -9.325728 -10.777616 0.465104 0.057591 -0.281331 0.033289 1.094287 -76.223827 22.733477 101.313194 78.595859 98.585563 -12.238265 -9.971076 2.112636 0.093481 0.420971 0.084016
1.698283 45.873932 9.752669 163.791217 -10.622562 0.501337 3.716343 8.456994 0.274595 0.180266 0.451652 0.018124 0.370227 0.821570 0.036004 3.427074 7.844608 0.551452 -3.031137 22.339415 0.338504 -3.341478 -1.772789 1.057587 3.081765 3.050780 -4.727724 -1.374551 -10.224489 -1.344497 -123.122947 -86.369824 137.715300 -9.086906 -6.785718 -31.996581 -10.737073 0.728640 -4.032668 13.212277 -11.192424 9.543364 59.637871 -69.095888 -81.529010 8.169231 -4.591373 20.659797 -11.907912 -77.406843 9.357054 -145.582483 82.402283 -147.800127 -9.203158 -10.779907 0.442883 0.074677 -0.285126 0.042519 1.003579 -76.201157 22.881738 101.428472 78.617897 98.687846 -12.223327 -10.004813 2.090243 0.091961 0.431927 0.086653
